<svg width="24" height="28" viewBox="0 0 24 28" fill="none" xmlns="http://www.w3.org/2000/svg">
<path d="M13 0.875C11.7034 0.875 10.6272 1.78344 10.3047 2.98438C9.97469 2.84844 9.62688 2.75 9.25 2.75C7.70781 2.75 6.4375 4.02031 6.4375 5.5625V15.6406L5.61719 14.8203C5.08669 14.296 4.37088 14.002 3.625 14.002C2.87912 14.002 2.16332 14.296 1.63281 14.8203C1.1085 15.3508 0.814465 16.0666 0.814465 16.8125C0.814465 17.5584 1.1085 18.2742 1.63281 18.8047L7.99 25.1619C9.0925 26.2606 10.6159 27.125 12.4141 27.125H16.75C20.3641 27.125 23.3125 24.1766 23.3125 20.5625V9.3125C23.3125 7.77031 22.0422 6.5 20.5 6.5C20.1797 6.50401 19.8624 6.56364 19.5625 6.67625V5.5625C19.5625 4.02031 18.2922 2.75 16.75 2.75C16.3731 2.75 16.0253 2.84844 15.6953 2.98438C15.3728 1.78344 14.2966 0.875 13 0.875ZM13 2.75C13.5306 2.75 13.9375 3.15688 13.9375 3.6875V13.0625H15.8125V5.5625C15.8125 5.03188 16.2194 4.625 16.75 4.625C17.2806 4.625 17.6875 5.03188 17.6875 5.5625V13.0625H19.5625V9.3125C19.5625 8.78188 19.9694 8.375 20.5 8.375C21.0306 8.375 21.4375 8.78188 21.4375 9.3125V20.5625C21.4375 23.1622 19.3497 25.25 16.75 25.25H12.4141C11.2206 25.25 10.195 24.6678 9.33813 23.8147L2.95094 17.4866C2.8621 17.3982 2.79161 17.2932 2.7435 17.1775C2.6954 17.0618 2.67063 16.9378 2.67063 16.8125C2.67063 16.6872 2.6954 16.5632 2.7435 16.4475C2.79161 16.3318 2.8621 16.2268 2.95094 16.1384C3.03928 16.0496 3.14431 15.9791 3.25999 15.931C3.37567 15.8829 3.49972 15.8581 3.625 15.8581C3.75028 15.8581 3.87433 15.8829 3.99001 15.931C4.10569 15.9791 4.21072 16.0496 4.29906 16.1384L6.70094 18.5703L8.3125 20.1819V5.5625C8.3125 5.03188 8.71938 4.625 9.25 4.625C9.78063 4.625 10.1875 5.03188 10.1875 5.5625V13.0625H12.0625V3.6875C12.0625 3.15688 12.4694 2.75 13 2.75Z" fill="white"/>
</svg>
