<svg width="29" height="27" viewBox="0 0 29 27" fill="none" xmlns="http://www.w3.org/2000/svg">
<path d="M13.4794 6.35626C13.8638 7.28439 15.2963 6.68158 14.9081 5.7497L14.3625 4.4372C14.0906 3.78658 13.5422 1.4072 12.4481 1.86283C11.4825 2.26876 12.3281 3.59345 12.5813 4.20095L13.4794 6.3572M19.5 6.77251C20.5256 7.1972 20.9419 5.31939 21.1997 4.69501C21.4622 4.06033 22.5853 2.29033 21.5344 1.85439C20.5106 1.43064 20.0934 3.30751 19.8347 3.93283C19.5722 4.56845 18.45 6.3347 19.5 6.77251ZM17.0034 6.2747C18.1125 6.2747 17.7816 4.38095 17.7816 3.70408C17.7816 3.01783 18.1397 0.952515 17.0034 0.952515C15.8944 0.952515 16.2272 2.84626 16.2272 3.52314C16.2272 4.21033 15.8681 6.2747 17.0034 6.2747ZM21.615 8.18439C22.4147 8.98126 23.6241 7.2722 24.1087 6.78751C24.5887 6.30564 26.1591 5.20501 25.3763 4.42033C24.5934 3.63658 23.4881 5.21064 23.0109 5.68876C22.5234 6.17345 20.8078 7.38189 21.6141 8.18251M23.0278 10.2994C23.4478 11.3213 25.0744 10.29 25.6997 10.0313C26.3325 9.76876 28.3781 9.30939 27.9431 8.25939C27.5166 7.23752 25.8994 8.26689 25.2712 8.52658C24.6366 8.79095 22.5937 9.24845 23.0278 10.2985M11.2809 8.19564C11.9869 8.89876 13.0931 7.80658 12.3778 7.09595C12.1416 6.7697 11.7731 6.49033 11.4891 6.20814C10.9828 5.70189 9.46219 3.58314 8.61281 4.43626C7.87219 5.17876 9.16125 6.08251 9.62719 6.54564L11.2809 8.19564ZM27.5278 16.3088C26.8059 16.0116 26.0887 15.7135 25.3687 15.4163C24.7631 15.165 23.4281 14.3194 23.0297 15.2897C22.5797 16.3847 24.9553 16.9275 25.6078 17.1975L26.8903 17.7272C27.8409 18.121 28.4775 16.7016 27.5278 16.3088ZM28.0678 12.015H25.7334C25.0772 12.015 23.5237 11.745 23.5256 12.7931C23.5256 13.9763 25.9322 13.5685 26.6381 13.5685H28.0238C29.0503 13.5685 29.1 12.0122 28.0678 12.015ZM22.7166 17.4056C22.0856 16.7756 21.0544 17.5838 21.5166 18.3506C21.2415 18.1015 20.9389 17.8845 20.6147 17.7038C24.2653 15.0169 23.7347 9.26064 19.6584 7.29095C18.7136 6.84019 17.6695 6.63757 16.6247 6.7022C15.5798 6.76682 14.5686 7.09657 13.6866 7.66033C12.8679 8.19188 12.1874 8.91037 11.7009 9.75658C11.3286 10.4036 11.0794 11.1141 10.9659 11.8519C10.8881 12.3525 10.8628 12.3703 10.4475 12.6675C10.2769 11.7713 8.91 12.0356 8.26687 12.0366C7.50375 12.0366 6.4275 11.8331 5.68875 12.0797C4.875 12.3516 5.07656 13.5938 5.93438 13.5919C6.23813 13.6388 6.59062 13.59 6.89812 13.59L9.44156 13.5872C9.15281 13.9172 8.97656 14.4966 8.56031 14.3091C8.12103 14.1118 7.645 14.0095 7.16344 14.0091C6.26794 14.0112 5.40795 14.3596 4.76344 14.9813C4.12174 15.6026 3.74432 16.4475 3.70969 17.34C2.82089 17.6327 2.03347 18.1717 1.43906 18.8944C-1.14469 22.0388 1.19063 26.9138 5.24344 26.9138V26.9119H15.3609C16.6172 26.9119 18.0262 27.0685 19.2684 26.806C22.6922 26.0822 24.2934 21.9216 22.2056 19.0903L23.7459 20.6297C23.9175 20.8013 24.0872 21.0272 24.285 21.1678C24.8025 21.6863 25.7137 21.2306 25.6003 20.5003C25.5103 19.9172 24.6253 19.3125 24.2438 18.9319L22.7156 17.4066M17.0006 8.23783C21.2756 8.24533 23.1656 13.8422 19.7306 16.425C19.1325 13.14 15.8288 10.966 12.5775 11.7094C12.8215 10.7202 13.3894 9.84112 14.1907 9.21202C14.9921 8.58292 15.9809 8.23999 16.9997 8.23783M21.4603 22.575C20.8669 25.7119 17.5697 25.275 15.1978 25.275H6.71344C5.99531 25.275 5.19469 25.3528 4.48969 25.185C2.35781 24.6806 1.28719 22.1456 2.45344 20.2772C3.09094 19.2572 3.92531 19.1616 4.91625 18.7116C5.4825 18.4547 5.34375 17.9541 5.34375 17.4628C5.34562 16.9031 5.61 16.366 6.0525 16.0256C6.78937 15.4556 7.87313 15.5597 8.49938 16.245C9.52875 17.3738 10.3369 14.9822 10.8497 14.4694C12.7481 12.571 15.9825 12.8681 17.4759 15.1106C17.7984 15.5944 18.0197 16.1438 18.1256 16.7156C18.2166 17.2125 18.0178 17.9719 18.3019 18.3994C18.5737 18.84 19.1859 18.8335 19.6116 19.0369C20.2693 19.3365 20.8083 19.847 21.1431 20.4876C21.478 21.1281 21.5896 21.862 21.4603 22.5731M6.47344 9.2972L8.95313 10.3191C9.28406 10.4569 9.61594 10.5938 9.94687 10.7297C10.8816 11.116 11.4816 9.6797 10.5487 9.29908C9.81562 8.84908 8.865 8.60251 8.07094 8.27533L7.07813 7.86564C6.14438 7.48127 5.54156 8.91095 6.47344 9.2972Z" fill="white"/>
</svg>
