<svg width="30" height="30" viewBox="0 0 30 30" fill="none" xmlns="http://www.w3.org/2000/svg">
<path d="M10 15H12.5V17.5H5V15H7.5C7.5 13.5166 7.93987 12.0666 8.76398 10.8332C9.58809 9.59985 10.7594 8.63856 12.1299 8.0709C13.5003 7.50325 15.0083 7.35472 16.4632 7.64411C17.918 7.9335 19.2544 8.64781 20.3033 9.6967C21.3522 10.7456 22.0665 12.082 22.3559 13.5368C22.6453 14.9917 22.4968 16.4997 21.9291 17.8701C21.3614 19.2406 20.4001 20.4119 19.1668 21.236C17.9334 22.0601 16.4834 22.5 15 22.5V20C15.9889 20 16.9556 19.7068 17.7779 19.1573C18.6001 18.6079 19.241 17.827 19.6194 16.9134C19.9978 15.9998 20.0969 14.9945 19.9039 14.0245C19.711 13.0546 19.2348 12.1637 18.5355 11.4645C17.8363 10.7652 16.9454 10.289 15.9755 10.0961C15.0055 9.90315 14.0002 10.0022 13.0866 10.3806C12.173 10.759 11.3921 11.3999 10.8427 12.2221C10.2932 13.0444 10 14.0111 10 15ZM7.5 25H18.75V27.5H7.5V25ZM2.5 20H12.5V22.5H2.5V20ZM13.75 1.25H16.25V5H13.75V1.25ZM4.39375 6.16125L6.16125 4.39375L8.8125 7.045L7.045 8.8125L4.39375 6.16125ZM21.1875 22.955L22.955 21.1875L25.6063 23.8387L23.8387 25.6063L21.1875 22.955ZM23.8387 4.3925L25.6063 6.16125L22.955 8.8125L21.1875 7.045L23.8387 4.39375V4.3925ZM28.75 13.75V16.25H25V13.75H28.75Z" fill="white"/>
</svg>
