<svg width="26" height="26" viewBox="0 0 26 26" fill="none" xmlns="http://www.w3.org/2000/svg">
<path d="M15.4375 25.375C15.125 25.5417 14.8075 25.5679 14.485 25.4538C14.1625 25.3396 13.9175 25.1258 13.75 24.8125L11.875 21.0625C11.7083 20.75 11.6825 20.4325 11.7975 20.11C11.9125 19.7875 12.1258 19.5425 12.4375 19.375C12.75 19.2083 13.0679 19.1821 13.3912 19.2963C13.7146 19.4104 13.9592 19.6242 14.125 19.9375L16 23.6875C16.1667 24 16.1929 24.3179 16.0788 24.6413C15.9646 24.9646 15.7508 25.2092 15.4375 25.375ZM22.9375 25.375C22.625 25.5417 22.3075 25.5679 21.985 25.4538C21.6625 25.3396 21.4175 25.1258 21.25 24.8125L19.375 21.0625C19.2083 20.75 19.1821 20.4325 19.2963 20.11C19.4104 19.7875 19.6242 19.5425 19.9375 19.375C20.25 19.2083 20.5679 19.1821 20.8912 19.2963C21.2146 19.4104 21.4592 19.6242 21.625 19.9375L23.5 23.6875C23.6667 24 23.6929 24.3179 23.5787 24.6413C23.4646 24.9646 23.2508 25.2092 22.9375 25.375ZM7.9375 25.375C7.625 25.5417 7.3075 25.5679 6.985 25.4538C6.6625 25.3396 6.4175 25.1258 6.25 24.8125L4.375 21.0625C4.20833 20.75 4.1825 20.4325 4.2975 20.11C4.4125 19.7875 4.62583 19.5425 4.9375 19.375C5.25 19.2083 5.56792 19.1821 5.89125 19.2963C6.21458 19.4104 6.45917 19.6242 6.625 19.9375L8.5 23.6875C8.66667 24 8.69292 24.3179 8.57875 24.6413C8.46458 24.9646 8.25083 25.2092 7.9375 25.375ZM7.375 18C5.47917 18 3.85958 17.3279 2.51625 15.9838C1.17292 14.6396 0.500833 13.02 0.5 11.125C0.5 9.39583 1.07292 7.88542 2.21875 6.59375C3.36458 5.30209 4.78125 4.54167 6.46875 4.3125C7.13542 3.125 8.04708 2.1925 9.20375 1.515C10.3604 0.837502 11.6258 0.499168 13 0.500002C14.875 0.500002 16.5054 1.09917 17.8913 2.2975C19.2771 3.49583 20.1154 4.99042 20.4062 6.78125C21.8437 6.90625 23.0521 7.5 24.0313 8.5625C25.0104 9.625 25.5 10.8958 25.5 12.375C25.5 13.9375 24.9533 15.2658 23.86 16.36C22.7667 17.4542 21.4383 18.0008 19.875 18H7.375ZM7.375 15.5H19.875C20.75 15.5 21.4896 15.1979 22.0937 14.5938C22.6979 13.9896 23 13.25 23 12.375C23 11.5 22.6979 10.7604 22.0937 10.1563C21.4896 9.55209 20.75 9.25 19.875 9.25H18V8C18 6.625 17.5104 5.44792 16.5312 4.46875C15.5521 3.48959 14.375 3 13 3C12 3 11.0887 3.27083 10.2662 3.8125C9.44375 4.35417 8.82375 5.08334 8.40625 6L8.09375 6.75H7.3125C6.125 6.79167 5.10958 7.23458 4.26625 8.07875C3.42292 8.92292 3.00083 9.93833 3 11.125C3 12.3333 3.42708 13.3646 4.28125 14.2188C5.13542 15.0729 6.16667 15.5 7.375 15.5Z" fill="white"/>
</svg>
