<svg width="30" height="30" viewBox="0 0 30 30" fill="none" xmlns="http://www.w3.org/2000/svg">
<path d="M5.625 16.9875C6.25 17.3375 6.425 18.125 6.0875 18.7C5.7375 19.3 5 19.5 4.375 19.1625C3.42319 18.6159 2.63282 17.8274 2.08402 16.8769C1.53521 15.9263 1.24748 14.8476 1.25 13.75C1.25 12.0924 1.90848 10.5027 3.08058 9.33058C4.25269 8.15848 5.8424 7.5 7.5 7.5C8.75 4.5625 11.625 2.5 15 2.5C19.2875 2.5 22.8 5.825 23.125 10.0375L23.75 10C25.0761 10 26.3479 10.5268 27.2855 11.4645C28.2232 12.4021 28.75 13.6739 28.75 15C28.75 16.3261 28.2232 17.5979 27.2855 18.5355C26.3479 19.4732 25.0761 20 23.75 20C23.4185 20 23.1005 19.8683 22.8661 19.6339C22.6317 19.3995 22.5 19.0815 22.5 18.75C22.5 18.4185 22.6317 18.1005 22.8661 17.8661C23.1005 17.6317 23.4185 17.5 23.75 17.5C24.413 17.5 25.0489 17.2366 25.5178 16.7678C25.9866 16.2989 26.25 15.663 26.25 15C26.25 14.337 25.9866 13.7011 25.5178 13.2322C25.0489 12.7634 24.413 12.5 23.75 12.5H21.25V11.25C21.25 9.5924 20.5915 8.00269 19.4194 6.83058C18.2473 5.65848 16.6576 5 15 5C11.875 5 9.3125 7.275 8.825 10.2375C8.4125 10.0875 7.9625 10 7.5 10C6.50544 10 5.55161 10.3951 4.84835 11.0983C4.14509 11.8016 3.75 12.7554 3.75 13.75C3.75 15.1375 4.5 16.35 5.625 17V16.9875ZM11.875 13.75H15.625L13.125 18.75H15.625L10.9375 27.5L11.875 21.25H8.75L11.875 13.75ZM21.875 23.3375C21.875 24.95 20.625 26.25 19.0625 26.25C17.5 26.25 16.25 24.95 16.25 23.3375C16.25 21.4 19.0625 18.125 19.0625 18.125C19.0625 18.125 21.875 21.4 21.875 23.3375Z" fill="white"/>
</svg>
