<svg width="30" height="30" viewBox="0 0 30 30" fill="none" xmlns="http://www.w3.org/2000/svg">
<path d="M1.48 21.1001C1.48 21.3401 1.57 21.5401 1.75 21.7001C1.92 21.8701 2.12 21.9501 2.36 21.9501H8.24C8.5 21.9501 8.72 22.0401 8.92 22.2301C9.0146 22.3173 9.09009 22.4232 9.14173 22.5411C9.19337 22.659 9.22002 22.7863 9.22002 22.9151C9.22002 23.0438 9.19337 23.1711 9.14173 23.289C9.09009 23.4069 9.0146 23.5128 8.92 23.6001C8.72 23.7901 8.5 23.8901 8.24 23.8901C7.98 23.8901 7.76 23.7901 7.56 23.5901C7.39472 23.4352 7.1765 23.3493 6.95 23.3501C6.71 23.3501 6.51 23.4301 6.35 23.5901C6.19 23.7501 6.11 23.9501 6.11 24.1901C6.11 24.4301 6.19 24.6301 6.35 24.7901C6.88 25.3201 7.51 25.5901 8.24 25.5901C8.98 25.5901 9.61 25.3301 10.12 24.8101C10.63 24.2901 10.9 23.6601 10.9 22.9201C10.9 22.1801 10.64 21.5501 10.12 21.0301C9.6 20.5101 8.97 20.2501 8.24 20.2501H2.36C2.2452 20.2482 2.1312 20.2694 2.02472 20.3123C1.91823 20.3553 1.82143 20.4191 1.74 20.5001C1.57 20.6701 1.48 20.8701 1.48 21.1001ZM1.48 18.0901C1.48 18.3201 1.57 18.5101 1.75 18.6701C1.91 18.8301 2.12 18.9101 2.36 18.9101H13.33C14.07 18.9101 14.7 18.6501 15.22 18.1301C15.74 17.6101 16 16.9801 16 16.2401C16 15.5001 15.74 14.8801 15.22 14.3601C14.7 13.8501 14.07 13.5901 13.33 13.5901C12.57 13.5901 11.95 13.8401 11.45 14.3501C11.29 14.5101 11.22 14.7201 11.22 14.9601C11.22 15.2001 11.3 15.4001 11.45 15.5601C11.6 15.7101 11.8 15.7901 12.05 15.7901C12.29 15.7901 12.49 15.7101 12.67 15.5601C12.86 15.3701 13.08 15.2801 13.35 15.2801C13.62 15.2801 13.84 15.3701 14.03 15.5601C14.22 15.7501 14.32 15.9801 14.32 16.2401C14.32 16.5101 14.22 16.7401 14.03 16.9301C13.84 17.1201 13.61 17.2201 13.35 17.2201H2.36C2.24458 17.2201 2.13032 17.2431 2.02387 17.2877C1.91743 17.3324 1.82093 17.3978 1.74 17.4801C1.57 17.6601 1.48 17.8601 1.48 18.0901ZM7.27 11.5501C7.27 11.3101 7.36 11.1101 7.53 10.9301C7.71 10.7701 7.91 10.6901 8.13 10.6901H10.16C10.39 10.6901 10.58 10.7701 10.74 10.9401C10.9 11.1101 10.97 11.3101 10.97 11.5501C10.97 11.7901 10.89 11.9901 10.74 12.1501C10.58 12.3201 10.39 12.4001 10.16 12.4001H8.13C7.89 12.4001 7.69 12.3201 7.52 12.1501C7.43945 12.0725 7.37569 11.9792 7.33268 11.876C7.28968 11.7728 7.26834 11.6619 7.27 11.5501ZM10.12 4.63005C10.12 4.40005 10.2 4.20005 10.35 4.02005C10.5276 3.86584 10.7548 3.78065 10.99 3.78005C11.21 3.78005 11.41 3.86005 11.58 4.02005L13.01 5.49005C13.17 5.64005 13.25 5.84005 13.25 6.08005C13.25 6.32005 13.17 6.52005 13.01 6.68005C12.85 6.84005 12.65 6.92005 12.42 6.92005C12.18 6.92005 11.98 6.84005 11.83 6.68005L10.36 5.25005C10.2809 5.16781 10.2189 5.07063 10.1777 4.96418C10.1365 4.85774 10.1169 4.74415 10.12 4.63005ZM12.68 11.4301V11.3601C12.7 10.4501 12.95 9.61005 13.42 8.83005C13.8886 8.06939 14.5423 7.43982 15.32 7.00005C16.1026 6.55411 16.9893 6.32297 17.89 6.33005C18.59 6.33005 19.26 6.47005 19.91 6.75005C20.55 7.03005 21.11 7.40005 21.57 7.87005C22.04 8.34005 22.41 8.89005 22.68 9.53005C22.95 10.1701 23.09 10.8501 23.09 11.5501C23.09 12.4901 22.86 13.3501 22.4 14.1501C21.94 14.9501 21.31 15.5801 20.52 16.0401C19.7327 16.5056 18.8347 16.7508 17.92 16.7501H17.71C17.64 16.7501 17.58 16.7301 17.54 16.6801C17.5166 16.6565 17.4982 16.6283 17.4862 16.5974C17.4741 16.5664 17.4686 16.5333 17.47 16.5001V15.2801C17.47 15.1501 17.54 15.0801 17.69 15.0801H17.93C18.89 15.0701 19.72 14.7301 20.4 14.0301C21.08 13.3401 21.43 12.5101 21.43 11.5401C21.43 10.5801 21.08 9.76005 20.39 9.07005C19.7 8.39005 18.87 8.05005 17.89 8.05005C16.95 8.05005 16.13 8.37005 15.45 9.03005C14.77 9.68005 14.41 10.4701 14.37 11.4001C14.37 11.4601 14.34 11.5101 14.29 11.5701C14.24 11.6301 14.15 11.6601 14.03 11.6601H12.9C12.75 11.6701 12.68 11.5901 12.68 11.4301ZM17.03 21.3101V19.3201C17.03 19.0801 17.11 18.8801 17.28 18.7201C17.45 18.5601 17.65 18.4801 17.88 18.4801C17.9919 18.4761 18.1033 18.495 18.2076 18.5357C18.3119 18.5763 18.4067 18.6379 18.4863 18.7166C18.5659 18.7952 18.6286 18.8894 18.6705 18.9931C18.7124 19.0969 18.7327 19.2082 18.73 19.3201V21.3101C18.73 21.5501 18.65 21.7601 18.48 21.9301C18.31 22.1001 18.11 22.1801 17.88 22.1801C17.64 22.1801 17.44 22.1001 17.28 21.9301C17.1189 21.764 17.0292 21.5414 17.03 21.3101ZM17.03 3.83005V1.78005C17.03 1.55005 17.11 1.35005 17.28 1.18005C17.45 1.01005 17.65 0.930054 17.88 0.930054C18.12 0.930054 18.32 1.01005 18.48 1.18005C18.64 1.35005 18.73 1.55005 18.73 1.78005V3.82005C18.73 4.05005 18.65 4.24005 18.48 4.40005C18.31 4.55005 18.11 4.63005 17.88 4.63005C17.64 4.63005 17.44 4.55005 17.28 4.40005C17.2003 4.32823 17.1367 4.24025 17.0936 4.14198C17.0505 4.0437 17.0288 3.93736 17.03 3.83005ZM22.56 17.0101C22.56 16.7801 22.64 16.5901 22.79 16.4501C22.863 16.3731 22.9516 16.3128 23.05 16.2731C23.1483 16.2334 23.2541 16.2153 23.36 16.2201C23.6 16.2201 23.8 16.3001 23.96 16.4501L25.41 17.8701C25.57 18.0401 25.65 18.2501 25.65 18.4801C25.65 18.7101 25.57 18.9101 25.41 19.0701C25.01 19.3801 24.61 19.3801 24.21 19.0701L22.79 17.6401C22.63 17.4801 22.56 17.2601 22.56 17.0101ZM22.56 6.08005C22.56 5.83005 22.64 5.63005 22.79 5.49005L24.21 4.02005C24.39 3.86005 24.58 3.78005 24.8 3.78005C25.03 3.78005 25.23 3.86005 25.4 4.03005C25.57 4.20005 25.65 4.40005 25.65 4.63005C25.65 4.88005 25.57 5.09005 25.41 5.25005L23.96 6.68005C23.78 6.84005 23.58 6.92005 23.36 6.92005C23.13 6.92005 22.95 6.84005 22.79 6.68005C22.7126 6.60116 22.6522 6.50718 22.6126 6.40397C22.5731 6.30075 22.5551 6.19049 22.56 6.08005ZM24.82 11.5501C24.82 11.3101 24.9 11.1101 25.06 10.9301C25.22 10.7701 25.41 10.6901 25.63 10.6901H27.65C27.88 10.6901 28.08 10.7801 28.26 10.9501C28.44 11.1201 28.52 11.3201 28.52 11.5501C28.52 11.7801 28.43 11.9801 28.26 12.1501C28.08 12.3201 27.88 12.4001 27.65 12.4001H25.63C25.4 12.4001 25.21 12.3201 25.05 12.1501C24.9726 12.0712 24.9122 11.9772 24.8726 11.874C24.8331 11.7707 24.8151 11.6605 24.82 11.5501Z" fill="white"/>
</svg>
