<svg width="21" height="21" viewBox="0 0 21 21" fill="none" xmlns="http://www.w3.org/2000/svg">
<path d="M10.0625 0.625C9.58788 0.626574 9.12139 0.748272 8.70649 0.978753C8.29159 1.20923 7.94179 1.541 7.68969 1.94313C7.27191 1.69777 6.79698 1.56651 6.3125 1.5625C4.77031 1.5625 3.5 2.83281 3.5 4.375V7.8025L1.53687 10.3225C0.339687 11.8712 0.420312 14.0941 1.71312 15.5659L3.93969 18.0859C4.55439 18.7859 5.31143 19.3467 6.16022 19.7306C7.009 20.1146 7.92997 20.313 8.86156 20.3125H13.8125C17.4266 20.3125 20.375 17.3641 20.375 13.75V5.3125C20.375 3.77031 19.1047 2.5 17.5625 2.5C17.0609 2.5 16.5959 2.64625 16.1853 2.88063C15.9332 2.4785 15.5834 2.14673 15.1685 1.91625C14.7536 1.68577 14.2871 1.56407 13.8125 1.5625C13.3109 1.5625 12.8459 1.70875 12.4353 1.94313C12.1832 1.541 11.8334 1.20923 11.4185 0.978753C11.0036 0.748272 10.5371 0.626574 10.0625 0.625ZM10.0625 2.5C10.5931 2.5 11 2.90688 11 3.4375V6.25H12.875V4.375C12.875 3.84438 13.2819 3.4375 13.8125 3.4375C14.3431 3.4375 14.75 3.84438 14.75 4.375V6.25H16.625V5.3125C16.625 4.78188 17.0319 4.375 17.5625 4.375C18.0931 4.375 18.5 4.78188 18.5 5.3125V13.75C18.5 16.3497 16.4122 18.4375 13.8125 18.4375H8.86156C8.19658 18.4399 7.53878 18.2999 6.93239 18.0269C6.326 17.754 5.78507 17.3544 5.34594 16.855L3.11937 14.3069C2.77697 13.9229 2.58052 13.4308 2.56441 12.9166C2.5483 12.4025 2.71356 11.899 3.03125 11.4944L3.5 10.8784V11.875H5.375V4.375C5.375 3.84438 5.78187 3.4375 6.3125 3.4375C6.84312 3.4375 7.25 3.84438 7.25 4.375V6.25H9.125V3.4375C9.125 2.90688 9.53187 2.5 10.0625 2.5Z" fill="white"/>
</svg>
