<svg width="30" height="25" viewBox="0 0 30 25" fill="none" xmlns="http://www.w3.org/2000/svg">
<path d="M0.0117186 13.1895C-0.0585939 11.1211 1.55859 9.38086 3.62695 9.31055L3.82031 9.30469L3.33984 9.19336C1.31836 8.74805 0.0410155 6.74414 0.486328 4.72266C0.931641 2.70117 2.94141 1.42383 4.96289 1.875L15.0996 4.11914C15.2344 3.94922 15.375 3.78516 15.5156 3.62109L16.5938 2.43164C17.5723 1.36523 18.9551 0.75 20.4082 0.75H21.0059C24.1758 0.75 27.1055 2.43164 28.6992 5.16797L28.7871 5.32031C29.584 6.67969 30 8.23242 30 9.80859V17.1562C30 21.041 26.8535 24.1875 22.9688 24.1875H16.875C14.8066 24.1875 13.125 22.5059 13.125 20.4375C13.125 20.2734 13.1367 20.1094 13.1543 19.9512C12.0176 19.3066 11.25 18.0879 11.25 16.6875V16.5469L3.89062 16.8047C1.82227 16.875 0.0820311 15.2578 0.0117186 13.1895ZM3.72656 12.123C3.21094 12.1406 2.80664 12.5742 2.82422 13.0898C2.8418 13.6055 3.27539 14.0098 3.79102 13.9922L13.2539 13.6641C13.8281 13.6465 14.3496 13.9746 14.584 14.4961C14.8184 15.0176 14.7129 15.627 14.3203 16.043C14.1562 16.2129 14.0625 16.4355 14.0625 16.6875C14.0625 17.2031 14.4844 17.625 15 17.625C15.5332 17.625 16.0195 17.9238 16.2598 18.4043C16.5 18.8848 16.4473 19.4531 16.125 19.875C16.0078 20.0332 15.9375 20.2266 15.9375 20.4375C15.9375 20.9531 16.3594 21.375 16.875 21.375H22.9688C25.3008 21.375 27.1875 19.4883 27.1875 17.1562V9.80859C27.1875 8.73047 26.9004 7.66992 26.3555 6.73828L26.2676 6.58594C25.1777 4.71094 23.1738 3.5625 21.0059 3.5625H20.4082C19.7461 3.5625 19.1191 3.84375 18.6738 4.33008L17.5957 5.51953C17.5605 5.55469 17.5313 5.5957 17.4961 5.63086L20.8359 6.4043C21.3398 6.52148 21.6563 7.02539 21.5391 7.5293C21.4219 8.0332 20.918 8.34961 20.4141 8.23242L15.3984 7.07812L4.35352 4.61719C3.84961 4.50586 3.3457 4.82227 3.23437 5.33203C3.12305 5.8418 3.43945 6.33984 3.94922 6.45117L14.9355 8.88867C15.5332 9.02344 15.9785 9.52734 16.0313 10.1426L16.0371 10.2012C16.0723 10.5879 15.9492 10.9687 15.6973 11.2617C15.4453 11.5547 15.0762 11.7246 14.6895 11.7422L3.72656 12.123Z" fill="white"/>
</svg>
