<svg width="394" height="122" viewBox="0 0 394 122" fill="none" xmlns="http://www.w3.org/2000/svg">
<g clip-path="url(#clip0_4_3655)">
<rect width="121.231" height="121.231" rx="30.3077" fill="#471515"/>
<rect x="3.78846" y="18.9423" width="113.654" height="98.4999" rx="26.5192" fill="#FFD9D9"/>
<path d="M60.6154 39.7788V70.0865L87.1346 96.6057" stroke="#471515" stroke-width="15.1538" stroke-linecap="round" stroke-linejoin="round"/>
<rect x="3.78846" y="18.9423" width="113.654" height="98.4999" rx="26.5192" stroke="#471515" stroke-width="7.57692"/>
</g>
<rect x="3.78846" y="3.78846" width="113.654" height="113.654" rx="26.5192" stroke="#471515" stroke-width="7.57692"/>
<path d="M136.385 92.2919H156.851V73.246H166.13C174.092 73.246 180.144 71.3074 184.288 67.4301C188.461 63.5529 190.548 57.885 190.548 50.4264C190.548 42.9679 188.446 37.3148 184.243 33.4672C180.041 29.5899 174.062 27.6513 166.307 27.6513H136.385V92.2919ZM156.851 59.1725V42.1688H162.667C165.538 42.1688 167.491 42.8495 168.527 44.211C169.593 45.5429 170.125 47.6739 170.125 50.604C170.125 53.5638 169.593 55.7392 168.527 57.1302C167.491 58.4917 165.538 59.1725 162.667 59.1725H156.851Z" fill="#471515"/>
<path d="M194.668 70.1383C194.668 77.5376 197.154 83.2943 202.126 87.4083C207.098 91.5223 213.506 93.5794 221.35 93.5794C229.193 93.5794 235.601 91.5223 240.573 87.4083C245.575 83.2943 248.076 77.5376 248.076 70.1383V68.7176C248.076 61.3479 245.575 55.606 240.573 51.492C235.601 47.3779 229.193 45.3209 221.35 45.3209C213.536 45.3209 207.128 47.3779 202.126 51.492C197.154 55.606 194.668 61.3479 194.668 68.7176V70.1383ZM214.868 67.3413C214.868 64.1448 215.474 62.0286 216.688 60.9927C217.931 59.9272 219.485 59.3944 221.35 59.3944C223.214 59.3944 224.753 59.9272 225.967 60.9927C227.21 62.0286 227.831 64.1448 227.831 67.3413V71.4701C227.831 74.7259 227.239 76.8865 226.056 77.952C224.901 79.0175 223.333 79.5502 221.35 79.5502C219.396 79.5502 217.827 79.0175 216.644 77.952C215.46 76.8865 214.868 74.7259 214.868 71.4701V67.3413Z" fill="#471515"/>
<path d="M255.215 92.2919H275.015V64.3224C275.489 62.8129 276.155 61.7326 277.013 61.0815C277.872 60.4303 278.907 60.1048 280.121 60.1048C281.601 60.1048 282.666 60.5783 283.317 61.5254C283.969 62.4726 284.294 63.8044 284.294 65.5211V92.2919H304.139V64.3224C304.642 62.9017 305.338 61.851 306.226 61.1703C307.143 60.4599 308.224 60.1048 309.467 60.1048C310.828 60.1344 311.82 60.6079 312.441 61.5254C313.063 62.443 313.374 63.7009 313.374 65.2991V92.2919H333.263V65.2547C333.263 58.2401 331.783 53.2382 328.823 50.2489C325.864 47.2299 322.12 45.7205 317.591 45.7205C314.483 45.7205 311.391 46.4604 308.312 47.9403C305.234 49.3905 303.044 51.344 301.742 53.8005H301.609C300.632 51.3144 298.886 49.3461 296.37 47.8959C293.884 46.4456 290.968 45.7205 287.624 45.7205C284.99 45.7205 282.504 46.2236 280.165 47.2299C277.827 48.2362 276.081 49.7457 274.927 51.7583H274.66L274.527 46.7416H255.215V92.2919Z" fill="#471515"/>
<path d="M340.091 70.1383C340.091 77.5376 342.577 83.2943 347.55 87.4083C352.522 91.5223 358.93 93.5794 366.773 93.5794C374.616 93.5794 381.024 91.5223 385.997 87.4083C390.998 83.2943 393.499 77.5376 393.499 70.1383V68.7176C393.499 61.3479 390.998 55.606 385.997 51.492C381.024 47.3779 374.616 45.3209 366.773 45.3209C358.959 45.3209 352.552 47.3779 347.55 51.492C342.577 55.606 340.091 61.3479 340.091 68.7176V70.1383ZM360.291 67.3413C360.291 64.1448 360.898 62.0286 362.111 60.9927C363.355 59.9272 364.908 59.3944 366.773 59.3944C368.638 59.3944 370.177 59.9272 371.39 60.9927C372.633 62.0286 373.255 64.1448 373.255 67.3413V71.4701C373.255 74.7259 372.663 76.8865 371.479 77.952C370.325 79.0175 368.756 79.5502 366.773 79.5502C364.82 79.5502 363.251 79.0175 362.067 77.952C360.883 76.8865 360.291 74.7259 360.291 71.4701V67.3413Z" fill="#471515"/>
<defs>
<clipPath id="clip0_4_3655">
<rect width="121.231" height="121.231" rx="30.3077" fill="white"/>
</clipPath>
</defs>
</svg>
